<?xml version="1.0" encoding="UTF-8" standalone="no" ?>
<!DOCTYPE svg PUBLIC "-//W3C//DTD SVG 1.1//EN" "http://www.w3.org/Graphics/SVG/1.1/DTD/svg11.dtd">
<svg xmlns="http://www.w3.org/2000/svg" xmlns:xlink="http://www.w3.org/1999/xlink" version="1.1" width="50" height="50" viewBox="0 0 50 50" xml:space="preserve">
<desc>Created with Fabric.js 4.2.0</desc>
<defs>
</defs>
<rect x="0" y="0" width="100%" height="100%" fill="transparent"></rect>
<g transform="matrix(0 0 0 0 0 0)" id="7ceabb06-4319-4227-9ca0-f73eb32f4b55"  >
</g>
<g transform="matrix(1 0 0 1 25 25)" id="c9926150-a879-4a2a-9cc5-c9189dda7aa3"  >
<rect style="stroke: none; stroke-width: 1; stroke-dasharray: none; stroke-linecap: butt; stroke-dashoffset: 0; stroke-linejoin: miter; stroke-miterlimit: 4; fill: rgb(255,255,255); fill-rule: nonzero; opacity: 1; visibility: hidden;" vector-effect="non-scaling-stroke"  x="-25" y="-25" rx="0" ry="0" width="50" height="50" />
</g>
<g transform="matrix(0.27 0 0 0.27 25 25)" id="40630960-60ac-4453-a777-1388917d235d"  >
<path style="stroke: rgb(0,0,0); stroke-width: 0; stroke-dasharray: none; stroke-linecap: butt; stroke-dashoffset: 0; stroke-linejoin: miter; stroke-miterlimit: 4; fill: rgb(247,76,6); fill-rule: nonzero; opacity: 1;" vector-effect="non-scaling-stroke"  transform=" translate(-50, -50)" d="M 23.811 23.81 C 38.277 9.402999999999999 61.684 9.402999999999999 76.148 23.81 C 90.613 38.274 90.613 61.738 76.148 76.147 C 61.684 90.611 38.276999999999994 90.611 23.810999999999993 76.147 C 9.401 61.684 9.401 38.274 23.811 23.81 z M 62.069 26.958 C 63.173 26.958 64.057 27.895999999999997 64.057 29 L 64.057 71.012 C 64.057 72.116 63.172000000000004 72.999 62.069 72.999 L 49.152 59.145 L 37.227 59.145 C 36.507999999999996 59.145 35.903 58.536 35.903 57.764 L 35.903 41.974000000000004 C 35.903 41.202000000000005 36.507999999999996 40.595000000000006 37.227 40.595000000000006 L 49.373 40.595000000000006 L 62.069 26.958 z M 28.394 26.02 L 41.422 39.048 L 36.617999999999995 39.048 L 26.021 28.449 C 14.592 41.091 14.979000000000001 60.634 27.179000000000002 72.779 C 39.38 84.97999999999999 58.92400000000001 85.366 71.565 73.994 L 66.431 68.804 L 66.431 64.00200000000001 L 73.94 71.56500000000001 C 85.369 58.921000000000014 84.981 39.37900000000001 72.78 27.17800000000001 C 60.578 14.978 41.091 14.592 28.394 26.02 z" stroke-linecap="round" />
</g>
</svg>